<svg width="409" height="566" viewBox="0 0 409 566" fill="none" xmlns="http://www.w3.org/2000/svg">
<rect width="409" height="566" fill="white"/>
<path d="M138.006 226.738H97.1455V104.482H138.006V226.738Z" fill="#89DCFF"/>
<path d="M138.006 226.738H97.1455V104.482H138.006V226.738Z" stroke="black" stroke-width="5.37607" stroke-linejoin="round"/>
<path d="M117.579 90.8641H158.44L138.01 104.482H97.1489L117.579 90.8641Z" stroke="black" stroke-width="5.37607" stroke-linejoin="round"/>
<path d="M158.434 90.8641V213.12L138.007 226.738V104.482L158.434 90.8641Z" stroke="black" stroke-width="5.37607" stroke-linejoin="round"/>
<path d="M117.74 104.482L138.003 90.8641" stroke="black" stroke-width="5.37607" stroke-linecap="round" stroke-linejoin="round"/>
<path d="M138.007 127.507L158.357 114.213" stroke="black" stroke-width="5.37607" stroke-linecap="round" stroke-linejoin="round"/>
<path d="M138.007 152.798L158.357 139.504" stroke="black" stroke-width="5.37607" stroke-linecap="round" stroke-linejoin="round"/>
<path d="M138.007 178.098L158.357 164.801" stroke="black" stroke-width="5.37607" stroke-linecap="round" stroke-linejoin="round"/>
<path d="M138.007 203.392L158.357 190.095" stroke="black" stroke-width="5.37607" stroke-linecap="round" stroke-linejoin="round"/>
<path d="M117.595 215.065V116.482" stroke="black" stroke-width="5.37607" stroke-linecap="round" stroke-linejoin="round"/>
<path d="M299.115 377.008C298.924 376.967 298.729 376.942 298.533 376.931C298.489 376.928 298.445 376.941 298.41 376.968C298.375 376.995 298.35 377.033 298.341 377.077C298.096 378.027 299.108 378.058 299.269 377.222C299.276 377.174 299.263 377.124 299.235 377.084C299.206 377.044 299.164 377.017 299.115 377.008ZM299.69 374.072C299.361 374.018 299.022 374.061 298.717 374.198C298.412 374.334 298.153 374.557 297.973 374.838C297.926 374.908 297.906 374.992 297.917 375.075C297.927 375.159 297.968 375.235 298.031 375.291C298.094 375.346 298.175 375.377 298.259 375.377C298.343 375.377 298.424 375.346 298.487 375.291C298.785 375.052 299.165 374.939 299.545 374.976C300.342 375.091 300.319 374.171 299.69 374.072ZM300.925 380.028C301.028 380.014 301.122 379.963 301.19 379.885C301.259 379.807 301.297 379.706 301.297 379.602C301.297 379.498 301.259 379.398 301.19 379.32C301.122 379.242 301.028 379.191 300.925 379.177H300.564C300.605 378.346 300.715 377.521 300.894 376.709C300.915 376.619 300.9 376.525 300.853 376.447C300.806 376.368 300.73 376.311 300.641 376.287C300.556 376.265 300.465 376.277 300.388 376.32C300.311 376.363 300.254 376.433 300.227 376.517C299.891 377.38 299.711 378.297 299.698 379.223C299.698 379.522 299.698 380.036 300.334 380.051C300.531 380.057 300.729 380.05 300.925 380.028ZM304.481 375.582C304.144 375.294 303.739 375.097 303.304 375.011C302.869 374.926 302.419 374.953 301.998 375.091C301.899 375.163 301.833 375.271 301.813 375.391C301.793 375.512 301.821 375.635 301.89 375.735C302.228 376.21 303.194 375.659 304.19 376.333C304.272 376.378 304.367 376.395 304.46 376.381C304.552 376.367 304.638 376.324 304.704 376.256C304.811 376.088 304.75 375.865 304.481 375.582ZM302.887 380.618C302.569 380.876 302.198 381.062 301.801 381.163C301.404 381.263 300.99 381.276 300.587 381.201C300.495 381.183 300.399 381.204 300.322 381.257C300.244 381.31 300.191 381.392 300.173 381.484C300.156 381.577 300.176 381.672 300.229 381.75C300.283 381.828 300.364 381.881 300.457 381.898C300.997 382.015 301.556 382.013 302.095 381.891C302.634 381.769 303.14 381.531 303.577 381.193C304.129 380.649 303.515 379.951 302.887 380.618ZM303.492 377.46C303.498 377.434 303.499 377.408 303.494 377.382C303.489 377.356 303.48 377.331 303.465 377.309C303.451 377.287 303.433 377.268 303.411 377.253C303.389 377.238 303.365 377.228 303.339 377.222C303.132 377.183 302.921 377.17 302.711 377.184C302.672 377.184 302.635 377.197 302.604 377.221C302.574 377.244 302.552 377.277 302.542 377.314C302.289 378.111 303.155 378.763 303.492 377.46Z" fill="black"/>
<path fill-rule="evenodd" clip-rule="evenodd" d="M301.867 387.693C300.917 387.693 300.809 388.1 300.886 389.226C300.993 390.76 300.986 390.836 302.251 390.836C303.515 390.836 303.623 390.836 303.638 389.211C303.653 387.586 303.316 387.693 301.867 387.693ZM296.501 427.677C296.501 427.721 296.519 427.764 296.551 427.796C296.582 427.827 296.625 427.845 296.67 427.845C296.715 427.845 296.758 427.827 296.789 427.796C296.821 427.764 296.839 427.721 296.839 427.677C295.94 415.378 297.775 403.032 302.212 391.526C302.327 391.227 301.867 391.005 301.76 391.311C298.207 400.308 296.309 409.872 296.157 419.544C296.157 422.257 296.279 424.971 296.501 427.677ZM255.813 423.054C254.41 423.254 253.007 423.323 251.597 423.399C250.91 421.658 250.047 419.991 249.021 418.424C248.416 417.658 248.147 419.858 246.975 424.005L242.191 425.139C241.969 425.193 241.685 425.753 241.969 425.96C242.858 426.611 244.614 427.631 245.618 428.19C245.173 429.455 244.361 431.647 244.085 432.835C244.016 433.104 244.499 433.602 244.782 433.364L249.619 429.7C251.189 430.642 252.83 431.462 254.525 432.153C254.593 432.184 254.668 432.196 254.741 432.187C254.815 432.178 254.885 432.149 254.944 432.103C255.002 432.057 255.047 431.996 255.073 431.927C255.099 431.857 255.106 431.782 255.092 431.709C254.614 430.149 253.991 428.637 253.23 427.194C254.326 426.075 255.353 424.894 256.411 423.729C256.702 423.338 256.158 423.008 255.813 423.054ZM252.463 427.155C253.038 428.474 253.659 429.762 254.104 431.126C253.49 430.858 249.589 428.734 249.351 428.895L245.028 432.284C245.488 430.842 245.94 429.401 246.4 427.968C246.545 427.485 243.265 425.975 242.72 425.668C243.487 425.507 246.959 424.902 247.435 424.58C247.58 424.48 248.73 420.479 248.968 419.75C249.351 420.356 251.083 423.997 251.398 424.012C252.695 424.082 253.995 424.035 255.284 423.875C254.901 424.265 252.356 426.864 252.486 427.171L252.463 427.155ZM249.55 407.562C250.003 407.815 250.118 407.125 250.072 406.857L249.083 402.503L252.502 400.334C252.908 400.073 253.352 399.414 252.731 399.307C251.16 399.031 249.573 398.824 247.994 398.586C247.519 396.842 246.935 395.129 246.246 393.458C246.216 393.393 246.168 393.337 246.108 393.299C246.047 393.26 245.977 393.239 245.905 393.239C245.834 393.239 245.763 393.26 245.703 393.299C245.642 393.337 245.594 393.393 245.564 393.458C245.104 394.562 244.338 397.038 243.977 398.264C242.705 398.333 239.646 398.433 238.612 398.609C238.382 398.686 238.113 399.146 238.336 399.376L241.616 402.35C241.279 403.837 240.965 405.347 240.674 406.849C240.62 407.133 240.965 407.447 241.241 407.279C242.705 406.405 244.146 405.485 245.587 404.58C246.86 405.608 248.201 406.581 249.55 407.562ZM242.214 402.043C241.259 401.059 240.234 400.145 239.148 399.307L244.123 399.084C244.621 399.084 245.764 395.144 245.978 394.539C246.354 395.704 247.005 397.704 247.243 398.471C247.481 399.238 247.174 399.115 248.048 399.238L251.881 399.866L248.584 402.097C248.27 402.311 249.167 405.93 249.274 406.489L245.733 403.906C245.342 403.622 241.9 406.045 241.379 406.39C241.632 405.393 242.498 402.963 242.214 402.043ZM275.222 449.017C274.57 449.079 271.274 449.286 270.707 449.431L268.806 446.273C268.668 446.012 268.193 444.656 267.664 444.84C267.541 444.84 267.465 444.939 267.396 445.254C267.265 445.79 267.15 447.055 266.813 450.228C265.28 450.604 263.785 450.995 262.29 451.47C262.068 451.539 261.838 452.061 262.091 452.237C263.395 453.089 264.764 453.837 266.184 454.475C265.924 455.587 265.809 456.729 265.633 457.848C265.502 458.722 265.15 460.071 266.637 458.921C267.739 458.07 268.765 457.123 269.703 456.093C270.791 456.606 273.206 457.748 274.241 458.078C274.341 458.116 275.007 458.155 274.892 457.718C274.26 456.207 273.49 454.757 272.593 453.387C273.553 452.332 274.456 451.226 275.299 450.075C275.667 449.669 275.858 448.964 275.222 449.017ZM272.003 453.517L273.858 457.104C273.359 456.897 269.672 455.188 269.511 455.303C268.446 456.353 267.465 457.296 266.322 458.277C266.43 457.564 267.089 454.13 266.798 453.939C265.487 453.302 264.222 452.666 262.965 451.969C263.547 451.831 267.311 451.072 267.442 450.665C267.695 449.861 267.909 447.408 268.047 446.419C268.685 447.656 269.456 448.821 270.347 449.891C270.684 450.305 274.049 449.891 274.678 449.807C274.233 450.297 271.727 453.011 272.003 453.517ZM358.393 382.45C359.683 383.116 361.04 383.645 362.44 384.029L362.869 388.705C362.908 389.027 363.467 389.088 363.59 388.882L366.288 384.627C367.959 384.941 369.607 385.348 371.263 385.754C371.807 385.884 372.252 385.447 371.639 384.673C370.642 383.512 369.728 382.282 368.902 380.994C369.078 380.679 371.002 377.376 371.056 376.985C371.052 376.859 371.006 376.739 370.925 376.643C370.845 376.547 370.734 376.481 370.612 376.456C370.512 376.456 366.779 377.943 366.403 378.088C365.966 377.721 362.984 374.946 362.854 374.67C362.586 374.148 362.141 374.102 362.087 374.585L361.996 379.614L358.4 381.469C358.155 381.599 358.147 382.327 358.393 382.45ZM362.662 379.921C362.816 379.016 362.8 376.801 362.823 375.689C363.799 376.812 364.879 377.839 366.051 378.755C366.418 379.039 369.339 377.759 370.029 377.468L368.297 380.71C368.297 381.883 370.037 384.022 370.834 384.872C370.228 384.711 366.135 383.569 365.867 383.976C365.1 385.248 364.211 386.62 363.437 387.893L363.237 384.826C363.122 383.117 362.984 383.462 361.75 383.025L358.86 381.952C359.55 381.714 362.57 380.457 362.662 379.921ZM344.917 453.992C344.917 453.601 342.717 450.596 342.341 450.16C342.471 449.945 344.388 446.235 344.503 445.828C344.694 445.062 344.212 444.939 343.844 445.062C342.41 445.614 341.145 445.928 339.72 446.38C338.56 444.847 337.405 443.314 336.255 441.781C335.802 441.245 335.488 442.44 335.488 442.77C335.389 444.188 335.143 446.373 335.182 447.638L330.812 449.684C330.398 449.891 330.812 450.366 330.95 450.451L335.005 451.938C335.005 453.471 334.722 455.771 334.86 457.127C334.86 457.38 335.396 457.549 335.557 457.357C336.768 455.955 337.934 454.514 339.099 453.065C340.892 453.724 342.728 454.259 344.595 454.667C345.047 454.774 345.285 454.169 344.917 453.992ZM338.738 452.329C337.665 453.647 336.6 454.981 335.565 456.338C335.603 455.625 335.91 451.892 335.741 451.432C335.649 451.187 332.253 450.205 331.763 450.045C332.154 449.884 335.488 448.473 335.772 448.22C336.055 447.967 336.216 443.583 336.262 442.916L339.26 447.093C339.605 447.431 342.939 446.235 343.598 445.974C342.98 447.318 342.356 448.655 341.728 449.983C341.559 450.497 343.56 453.18 343.928 453.724C343.315 453.563 338.884 452.145 338.738 452.329ZM376.79 410.138L373.946 406.642C374.406 405.615 375.479 402.503 375.625 401.959C375.633 401.862 375.607 401.764 375.551 401.684C375.495 401.604 375.413 401.547 375.318 401.522C375.004 401.415 371.616 402.94 371.11 403.139C369.995 401.924 368.954 400.644 367.99 399.307C367.729 398.916 367.346 399.383 367.277 399.552C367.208 399.721 367.016 404.289 366.978 404.918L361.919 406.857C361.574 407.003 361.743 407.693 361.965 407.754L366.878 409.057V414.162C366.878 414.507 367.124 415.695 367.607 415.144C368.825 413.518 370.152 411.794 371.363 410.161C374.651 410.537 375.801 411.027 376.729 410.805C376.805 410.793 376.875 410.756 376.928 410.7C376.981 410.644 377.013 410.572 377.02 410.495C377.027 410.419 377.008 410.342 376.967 410.277C376.925 410.212 376.863 410.163 376.79 410.138ZM370.987 409.479C369.914 410.958 368.741 412.545 367.668 414.009C367.668 412.928 367.614 409.586 367.484 408.957C368.067 408.191 363.237 407.424 362.678 407.279C363.268 407.064 367.484 405.746 367.553 405.347C367.806 403.726 367.952 402.089 367.99 400.449C368.35 400.985 370.351 403.937 370.956 403.737C371.294 403.998 374.023 402.802 374.667 402.488C374.498 403.032 373.133 406.589 373.356 406.934C374.122 407.953 374.996 409.049 375.77 410.069C375.004 410.069 371.171 409.302 370.972 409.479H370.987ZM367.875 434.001C368.151 433.51 369.738 430.766 369.814 430.413C369.8 430.328 369.768 430.246 369.721 430.173C369.674 430.1 369.614 430.037 369.542 429.988C369.471 429.938 369.39 429.904 369.305 429.886C369.221 429.868 369.133 429.868 369.048 429.884C367.637 430.344 366.258 430.773 364.839 431.203C363.475 429.9 362.072 428.596 360.662 427.324C360.615 427.283 360.56 427.254 360.5 427.238C360.441 427.222 360.378 427.22 360.318 427.232C360.257 427.244 360.2 427.269 360.151 427.306C360.101 427.344 360.061 427.392 360.033 427.447C359.849 427.899 360.301 432.406 360.409 433.157L355.671 435.549C355.549 435.618 355.158 436.208 355.572 436.316L361.191 437.189C361.239 439.194 361.496 441.187 361.957 443.138C362.133 443.475 362.77 443.284 362.885 443.084L365.782 437.772C367.116 438.048 368.848 438.385 370.182 438.661C370.995 438.853 371.585 438.454 371.033 437.895C369.968 436.615 368.879 435.334 367.875 434.001ZM365.575 437.151C365.131 437.289 362.984 441.704 362.655 442.348C362.532 441.635 361.965 436.63 361.628 436.5C361.29 436.369 357.082 435.879 356.637 435.84C357.197 435.58 361.129 433.932 361.137 433.449C361.137 431.739 360.93 430.068 360.876 428.366C362.082 429.567 363.296 430.753 364.517 431.923C364.855 432.268 368.243 431.019 368.81 430.804C368.297 431.793 367.277 433.196 367.277 434.284C368.126 435.53 369.053 436.72 370.052 437.849C369.293 437.68 365.959 436.96 365.545 437.151H365.575ZM319.099 488.111C319.023 487.529 319.099 484.463 319 483.987C319.721 484.007 320.443 483.935 321.146 483.773C321.445 483.527 322.901 441.13 322.541 433.855C319.529 435.595 311.158 440.056 307.21 439.374C304.719 438.945 300.166 435.748 298.495 434.077C297.207 432.782 297.199 430.858 297.329 429.156L293.497 429.041C293.315 430.813 292.646 432.5 291.564 433.914C290.481 435.328 289.027 436.414 287.364 437.052C284.858 452.038 282.673 468.089 282.159 483.811C282.159 483.987 283.156 484.049 283.938 484.072C283.876 484.57 283.478 487.636 283.554 487.904C281.952 488.61 276.801 490.879 276.655 492.864C276.541 494.083 290.07 493.27 290.139 492.864C290.262 492.258 290.139 489.146 289.733 488.648C290.039 487.115 290.338 485.582 290.637 484.049C292.055 483.987 293.159 484.049 293.213 483.788C295.605 474.183 299.92 465.261 302.588 455.709C302.013 452.137 301.384 447.983 300.932 444.403C299.936 443.956 299.025 443.339 298.242 442.578C297.536 441.896 298.533 441.605 299.115 441.942C300.717 442.877 301.998 443.268 302.044 443.59C303.577 453.18 308.613 475.548 310.805 483.742C310.859 483.934 311.725 483.918 312.614 483.98C312.806 485.382 313.013 486.862 313.274 488.257C312.906 488.334 312.507 492.22 312.867 492.488C313.634 493.033 325.132 493.776 325.377 493.109C325.623 492.442 322.779 489.821 319.099 488.111ZM289.35 488.479C287.541 488.28 285.647 488.579 283.907 487.943C284.158 486.663 284.342 485.371 284.459 484.072H290.108C289.711 485.512 289.457 486.989 289.35 488.479ZM313.657 488.249C313.519 486.824 313.327 485.413 313.12 483.995C314.966 484.102 316.817 484.102 318.662 483.995C318.517 485.358 318.517 486.733 318.662 488.096C317.001 488.285 315.327 488.336 313.657 488.249Z" fill="black"/>
<path fill-rule="evenodd" clip-rule="evenodd" d="M345.982 350.615C345.883 349.749 345.3 350.063 345.062 350.385C337.979 359.684 330.858 368.944 323.867 378.303C316.179 368.606 305.677 356.533 296.616 347.909C296.417 347.725 295.965 347.909 295.888 348.132C292.17 359.385 288.652 372.04 285.731 383.615C276.264 378.518 263.501 372.884 253.383 368.652C253.153 368.56 252.271 368.438 252.402 368.997C258.45 396.248 267.273 425.162 270.377 433.801C270.592 434.415 270.768 434.484 271.397 434.399C275.919 433.878 280.595 432.958 285.118 432.207L285.302 434.691C285.448 436.684 287.011 435.718 288.115 434.966C289.877 433.936 291.184 432.276 291.772 430.321C292.462 427.93 292.377 416.684 292.538 413.511C293.09 413.779 294.324 412.691 293.979 411.441C294.229 411.212 294.392 410.904 294.441 410.569C294.49 410.234 294.421 409.892 294.248 409.601C295.513 408.544 294.301 407.003 293.129 406.443C293.742 400.878 295.283 392.277 297.03 388.59L297.467 388.414C297.426 389.315 297.462 390.217 297.575 391.112C297.582 391.198 297.611 391.281 297.659 391.352C297.707 391.424 297.772 391.482 297.849 391.521C297.926 391.56 298.011 391.579 298.097 391.576C298.183 391.573 298.267 391.548 298.341 391.503C299.026 391.041 299.681 390.536 300.303 389.993C300.228 389.375 300.21 388.752 300.25 388.13C299.566 387.504 298.791 386.987 297.95 386.597C297.429 386.383 297.498 387.532 297.483 387.778C287.916 391.526 277.859 400.671 275.023 410.82C273.689 415.596 274.164 426.726 281.922 425.438C284.919 424.932 287.985 421.33 289.763 418.486C291.013 416.477 291.549 418.033 290.683 419.421C289.173 421.734 287.34 423.819 285.241 425.615C285.082 427.527 285.039 429.446 285.11 431.364C280.511 432.13 275.782 433.042 271.129 433.755C269.082 426.856 261.685 405.623 253.352 369.365C263.118 373.558 275.72 379.507 285.11 384.236C286.138 384.757 286.138 384.88 286.406 383.845C289.472 372.424 292.837 359.814 296.532 348.791C305.984 358.633 314.853 368.307 323.361 379.047C323.507 379.231 323.921 379.438 324.128 379.185C331.303 369.94 338.347 360.596 345.438 351.282C347.692 373.573 349.171 396.7 348.91 419.697C343.851 420.719 338.789 421.708 333.725 422.663C337.772 415.81 333.687 406.458 329.455 400.648C324.331 393.596 316.845 388.618 308.36 386.62C308.36 384.129 308.199 381.768 309.502 379.514C309.893 378.832 310.506 378.219 310.376 377.383C312.085 375.988 312.975 373.42 313.388 371.328C314.094 367.778 311.089 368.545 309.096 369.082C306.543 369.764 302.266 368.775 299.821 368.085C298.349 367.671 294.654 366.721 294.125 368.944C293.688 370.745 296.271 372.408 297.705 372.899C296.471 377.077 295.405 385.286 299.698 386.191C299.698 386.452 299.644 386.712 299.621 386.957C299.805 387.034 299.981 387.118 300.142 387.203C300.142 386.904 300.25 385.769 299.867 385.67C297.046 384.75 297.03 381.07 297.199 378.671C297.346 376.768 297.627 374.877 298.042 373.014C299.897 373.482 301.853 373.342 303.623 372.615C304.696 372.209 307.218 370.599 308.337 371.511C309.295 372.278 306.934 373.198 307.248 376.387C307.455 378.518 308.613 376.709 309.487 376.977C309.602 377.019 309.702 377.096 309.77 377.198C309.839 377.3 309.874 377.421 309.87 377.544C309.939 378.755 307.409 379.614 307.785 386.367C307.103 386.183 304.811 387.839 304.259 388.238C304.341 388.898 304.323 389.568 304.205 390.223C305.309 390.905 307.225 391.71 307.425 391.587C307.77 391.38 308.375 388.422 308.268 387.21C309.103 387.402 309.931 387.632 310.744 387.893C308.138 390.959 302.687 401.898 301.952 406.29C301.408 406.237 300.86 406.333 300.367 406.568C299.874 406.803 299.455 407.168 299.154 407.624C298.287 409.026 297.697 411.87 298.839 413.196C299.215 413.573 299.687 413.838 300.204 413.963C299.258 419.231 298.712 424.564 298.571 429.915C298.571 431.226 298.625 432.215 299.805 433.295C301.461 434.829 305.171 437.565 307.348 437.895C310.629 438.454 319.835 434.139 323.055 431.762C323.374 431.455 323.568 431.039 323.599 430.597C323.702 429.866 323.72 429.125 323.653 428.389C316.426 427.415 309.697 424.17 304.435 419.122C303.669 418.355 304.32 417.474 305.156 418.233C311.817 424.273 325.761 431.548 333.035 423.599C338.483 422.576 343.928 421.514 349.37 420.41C349.738 420.341 349.677 419.911 349.677 419.589C349.816 396.545 348.583 373.513 345.982 350.615ZM289.549 398.839C289.633 398.463 290.768 397.505 291.266 397.107C290.806 396.808 289.863 396.125 289.947 395.681C290.108 394.845 292.37 391.741 292.929 391.02C293.305 390.545 294.087 391.15 293.696 391.633C292.754 392.874 291.933 394.201 291.243 395.596C292.339 396.624 292.73 396.555 292.776 396.984C292.776 397.659 291.319 398.517 290.699 399.084C290.775 400.704 290.854 402.327 290.936 403.952C290.936 404.596 290.001 404.603 289.947 403.952C289.894 403.3 289.434 399.337 289.549 398.839ZM292.109 406.16C291.504 406.07 290.887 406.112 290.3 406.282C290.913 405.542 291.344 404.667 291.557 403.73C291.772 402.963 292.216 403.086 292.324 403.668C292.421 404.505 292.348 405.352 292.109 406.16ZM292.922 406.926C293.895 407.401 294.6 408.191 293.972 409.264C293.665 408.904 292.676 407.953 292.186 408.214C292.159 408.228 292.137 408.248 292.119 408.273C292.102 408.297 292.09 408.325 292.085 408.354C292.08 408.384 292.082 408.414 292.09 408.443C292.098 408.472 292.112 408.498 292.132 408.521C292.255 408.658 294.639 409.64 293.749 410.996C293.527 410.613 292.745 409.916 292.285 410.015C292.26 410.019 292.236 410.028 292.215 410.041C292.193 410.054 292.174 410.072 292.16 410.093C292.146 410.114 292.136 410.137 292.131 410.162C292.126 410.187 292.126 410.213 292.132 410.238C292.224 410.69 293.382 410.636 293.512 411.771C293.542 412.065 293.467 412.36 293.302 412.605C293.137 412.85 292.891 413.029 292.607 413.112C293.006 412.346 291.925 411.748 291.312 412.346C291.227 412.422 291.227 412.652 291.588 412.545C291.698 412.514 291.815 412.514 291.925 412.545C291.159 414.684 288.575 413.426 288.092 411.426C287.802 410.142 288.022 408.795 288.706 407.67C290.208 406.803 291.151 406.091 292.922 406.957V406.926ZM278.579 409.992C278.487 410.033 278.383 410.04 278.285 410.012C278.188 409.983 278.104 409.921 278.048 409.837C277.992 409.752 277.968 409.651 277.98 409.55C277.991 409.45 278.038 409.356 278.112 409.287C280.237 407.742 282.655 406.647 285.218 406.068C285.74 403.974 286.422 401.924 287.257 399.935C287.448 399.468 288.223 399.782 288.023 400.242C287.332 402.086 286.761 403.973 286.314 405.891C286.656 405.855 286.994 405.832 287.326 405.822C287.747 405.822 287.908 406.481 287.456 406.589C284.282 407.084 281.253 408.264 278.579 410.046V409.992ZM290.185 416.569C286.291 415.933 283.876 411.449 287.203 407.662L288.307 407.624C287.234 408.942 287.119 412.131 288.836 413.549C289.131 413.797 289.476 413.978 289.849 414.077C290.221 414.176 290.611 414.192 290.99 414.124C290.826 414.987 290.555 415.826 290.185 416.623V416.569ZM305.209 404.987C305.884 404.059 308.49 400.387 309.165 399.621C308.82 399.276 307.984 398.371 308.099 397.819C308.116 397.733 308.156 397.653 308.216 397.588C308.275 397.523 308.352 397.476 308.437 397.452L310.897 396.501L312.43 390.553C312.44 390.488 312.463 390.427 312.498 390.372C312.533 390.317 312.579 390.27 312.633 390.234C312.687 390.198 312.748 390.174 312.812 390.163C312.875 390.151 312.941 390.154 313.004 390.169C313.067 390.185 313.126 390.213 313.178 390.253C313.229 390.292 313.272 390.342 313.303 390.399C313.334 390.456 313.353 390.519 313.358 390.584C313.364 390.648 313.356 390.713 313.335 390.775C313.097 391.787 312.285 396.815 311.625 397.321C310.952 397.717 310.223 398.012 309.464 398.195C310.046 398.716 310.698 399.253 310.276 399.966C310.077 400.326 306.551 404.91 305.991 405.615C305.631 406.091 304.857 405.523 305.209 405.04V404.987ZM302.864 404.557C304.343 401.936 304.267 404.243 304.136 405.531C304.102 405.927 304.157 406.325 304.297 406.696C303.676 406.436 303.015 406.283 302.342 406.244C302.396 405.651 302.574 405.077 302.864 404.557ZM299.223 412.806C298.203 411.893 298.916 408.919 299.66 407.815C300.595 406.451 302.603 406.451 303.975 407.049C302.936 407.799 302.14 408.839 301.689 410.039C301.238 411.239 301.15 412.545 301.438 413.794C300.644 413.608 299.892 413.272 299.223 412.806ZM304.213 416.531L301.913 414.231C301.147 410.759 302.787 407.961 304.933 407.118C305.654 407.171 306.467 407.118 307.187 407.118C305.209 409.532 303.546 413.319 304.175 416.531H304.213ZM326.818 410.881C321.383 408.125 315.374 406.694 309.28 406.704C308.743 406.704 308.789 405.937 309.28 405.884C311.545 405.78 313.815 405.903 316.056 406.252C315.979 405.968 315.634 404.672 315.535 404.312C315.492 404.211 315.492 404.096 315.533 403.994C315.575 403.892 315.655 403.811 315.757 403.768C315.859 403.725 315.973 403.725 316.075 403.766C316.177 403.808 316.259 403.889 316.301 403.99C316.671 404.785 316.969 405.611 317.191 406.458C320.714 407.134 324.088 408.432 327.156 410.291C327.639 410.506 327.24 411.088 326.818 410.881Z" fill="black"/>
<path d="M290.769 170.328L238.976 206.106L234.026 262.688L357.047 273.449L361.997 216.87L317.205 172.64L290.772 170.324L290.769 170.328Z" fill="white"/>
<path d="M238.979 206.072L290.771 170.29L335.563 214.52L330.613 271.099L234.029 262.651L238.979 206.072Z" fill="#FFB9AA"/>
<path d="M290.769 170.328L238.976 206.106L234.026 262.688L357.047 273.449L361.997 216.87L317.205 172.64L290.772 170.324L290.769 170.328Z" stroke="black" stroke-width="5.37607" stroke-linecap="round" stroke-linejoin="round"/>
<path d="M238.979 206.072L290.771 170.29L335.563 214.52L330.613 271.099L234.029 262.651L238.979 206.072Z" stroke="black" stroke-width="5.37607" stroke-linecap="round" stroke-linejoin="round"/>
<path d="M335.561 214.52L362 216.836M305.613 184.952L332.046 187.265M320.451 199.58L346.887 201.893M331.849 256.993L358.282 259.309M333.084 242.844L359.524 245.157M334.325 228.691L360.759 231.007" stroke="black" stroke-width="5.37607" stroke-linecap="round" stroke-linejoin="round"/>
<path d="M238.336 263.033C241.733 224.411 268.368 193.417 303.25 182.618M256.794 264.645C259.832 230.134 286.074 203.231 318.795 197.969M275.251 266.26C277.947 235.704 304.893 213.106 335.455 215.774M293.708 267.876C295.515 247.513 313.471 232.456 333.84 234.234M312.165 269.487C312.605 264.602 314.963 260.091 318.723 256.942C322.483 253.793 327.339 252.263 332.225 252.689" stroke="black" stroke-width="5.37607" stroke-linecap="round" stroke-linejoin="round"/>
<path fill-rule="evenodd" clip-rule="evenodd" d="M76.8389 331.738L154.914 325.139L156.674 345.974L99.5761 350.797L101.497 373.325L137.195 370.308C150.844 369.153 162.754 379.337 163.903 392.924L166.102 418.926C167.25 432.516 157.214 444.547 143.565 445.699L107.864 448.719C94.2152 449.871 82.3047 439.69 81.1529 426.102L80.4828 418.16L101.318 416.4L101.991 424.342C102.176 426.528 104.063 428.057 106.104 427.884L141.805 424.867C142.307 424.82 142.794 424.674 143.24 424.438C143.685 424.203 144.08 423.882 144.401 423.493C144.722 423.105 144.963 422.657 145.112 422.175C145.26 421.694 145.311 421.188 145.264 420.686L143.071 394.685C143.034 394.182 142.897 393.691 142.67 393.241C142.443 392.791 142.129 392.39 141.747 392.061C141.365 391.732 140.921 391.481 140.442 391.324C139.963 391.166 139.458 391.105 138.955 391.143L82.2645 395.932L76.8389 331.738Z" fill="#94E986"/>
<path d="M76.8389 331.738L154.914 325.139L156.674 345.974L99.5761 350.797L101.497 373.325L137.195 370.308C150.844 369.153 162.754 379.337 163.903 392.924L166.102 418.926C167.25 432.516 157.214 444.547 143.565 445.699L107.864 448.719C94.2152 449.871 82.3047 439.69 81.1529 426.102L80.4828 418.16L101.318 416.4L101.991 424.342C102.176 426.528 104.063 428.057 106.104 427.884L141.805 424.867C142.307 424.82 142.794 424.674 143.24 424.438C143.685 424.203 144.08 423.882 144.401 423.493C144.722 423.105 144.963 422.657 145.112 422.175C145.26 421.694 145.311 421.188 145.264 420.686L143.071 394.685C143.034 394.182 142.897 393.691 142.67 393.241C142.443 392.791 142.129 392.39 141.747 392.061C141.365 391.732 140.921 391.481 140.442 391.324C139.963 391.166 139.458 391.105 138.955 391.143L82.2645 395.932L76.8389 331.738Z" stroke="black" stroke-width="5.37607" stroke-linecap="square" stroke-linejoin="round"/>
<path d="M142.694 337.019L87.9248 342.04L91.9732 384.513L135.521 380.226C146.19 379.325 153.496 386.455 154.395 397.075L156.112 417.663C157.007 428.286 149.562 436.154 138.896 437.056L110.989 439.415C102.188 440.159 94.3417 437.056 92.7792 428.894" stroke="black" stroke-width="5.37607" stroke-linecap="square" stroke-linejoin="round"/>
<path d="M154.905 375.817C157.472 377.92 159.591 380.518 161.134 383.457C162.678 386.395 163.615 389.614 163.891 392.921L166.089 418.923C167.238 432.513 157.205 444.544 143.556 445.696L107.855 448.716C102.256 449.2 96.6607 447.746 92.0044 444.6L109.239 457.177C113.691 459.879 118.888 461.094 124.077 460.645L159.778 457.628C173.427 456.476 183.463 444.442 182.314 430.855L180.115 404.85C179.84 401.542 178.903 398.323 177.359 395.384C175.816 392.445 173.697 389.847 171.129 387.743L154.905 375.817Z" stroke="black" stroke-width="5.37607" stroke-linecap="round" stroke-linejoin="round"/>
<path d="M164.193 396.204L180.415 408.133" stroke="black" stroke-width="5.37607" stroke-linejoin="round"/>
<path d="M165.567 413.17L181.792 425.099" stroke="black" stroke-width="5.37607" stroke-linejoin="round"/>
<path d="M164.434 430.135L180.656 442.067" stroke="black" stroke-width="5.37607" stroke-linejoin="round"/>
<path d="M155.278 441.564L171.499 453.493" stroke="black" stroke-width="5.37607" stroke-linejoin="round"/>
<path d="M137.219 446.205L153.444 458.135" stroke="black" stroke-width="5.37607" stroke-linejoin="round"/>
<path d="M116.644 447.99L132.865 459.919" stroke="black" stroke-width="5.37607" stroke-linejoin="round"/>
<path d="M143.859 404.026L98.4861 407.861L82.2646 395.932L138.955 391.14C140.993 390.97 142.883 392.498 143.068 394.685L143.856 404.026H143.859Z" stroke="black" stroke-width="5.37607" stroke-linecap="square" stroke-linejoin="round"/>
<path d="M101.747 394.305L117.969 406.234" stroke="black" stroke-width="5.37607" stroke-linejoin="round"/>
<path d="M120.698 392.665L136.92 404.594" stroke="black" stroke-width="5.37607" stroke-linejoin="round"/>
<path d="M156.68 345.974L154.92 325.139L171.141 337.068L172.902 357.903L156.68 345.974Z" stroke="black" stroke-width="5.37607" stroke-linecap="square" stroke-linejoin="round"/>
<path d="M99.5605 350.801L156.661 345.974L172.886 357.903L115.785 362.73L99.5605 350.801Z" stroke="black" stroke-width="5.37607" stroke-linecap="square" stroke-linejoin="round"/>
<path d="M138.705 347.376L154.929 359.302" stroke="black" stroke-width="5.37607" stroke-linejoin="round"/>
<path d="M117.981 349.272L134.206 361.201" stroke="black" stroke-width="5.37607" stroke-linejoin="round"/>
<path d="M116.579 372.049L101.484 373.325L99.5605 350.797L115.785 362.73L116.579 372.049Z" stroke="black" stroke-width="5.37607" stroke-linecap="square" stroke-linejoin="round"/>
</svg>
