<svg width="1920" height="1080" viewBox="0 0 1920 1080" fill="none" xmlns="http://www.w3.org/2000/svg">
<g clip-path="url(#clip0_132_12)">
<line y1="506.5" x2="791.016" y2="506.5" stroke="white"/>
<line x1="0.0078125" y1="529" x2="791.024" y2="529" stroke="white"/>
<line x1="0.015625" y1="551.5" x2="791.031" y2="551.5" stroke="white"/>
<g filter="url(#filter0_d_132_12)">
<rect x="798" y="203" width="653" height="653" rx="14" stroke="white" stroke-width="14" shape-rendering="crispEdges"/>
</g>
<g filter="url(#filter1_d_132_12)">
<circle cx="1920" cy="531" r="332" fill="#FFC9DF"/>
</g>
<path d="M339.64 476H333.016L358.84 411.68H365.272L391.096 476H384.088L376.312 456.224H347.416L339.64 476ZM358.552 428.096L349.624 450.656H374.104L365.272 428.096L361.912 418.112L358.552 428.096ZM403.36 476H397.024V411.68H403.36V476ZM453.886 477.056C446.878 477.056 441.406 472.64 441.406 464.288V434.816H433.918V429.92H441.406V423.296L447.646 418.592V429.92H463.102V434.816H447.646V462.56C447.646 469.184 451.102 471.008 455.134 471.008C459.262 471.008 462.622 468.032 464.158 464.768L466.366 470.912C464.35 474.272 459.838 477.056 453.886 477.056ZM478.994 476H472.658V429.92H478.994V442.496C480.722 435.2 485.81 428.864 493.682 428.864C499.058 428.864 503.474 432.32 503.474 438.656C503.474 442.112 502.61 444.992 501.746 446.528H494.93C496.178 445.088 497.33 442.112 497.33 439.328C497.33 436.352 495.602 433.664 491.378 433.664C484.466 433.664 478.994 441.344 478.994 449.312V476ZM520.494 476.96C512.91 476.96 508.59 472.832 508.59 466.688C508.59 460.64 513.102 456.8 519.534 453.92L537.006 445.952V445.568C537.006 438.656 533.742 434.624 526.254 434.624C519.342 434.624 514.35 438.56 511.95 443.648L507.534 439.232C510.414 434.432 517.134 428.96 526.926 428.96C537.678 428.96 543.246 435.2 543.246 445.472V467.072C543.246 469.472 544.302 470.336 546.51 470.336H549.198V476H544.878C540.27 476 537.198 473.984 537.198 468.128V463.232C535.662 469.856 529.71 476.96 520.494 476.96ZM514.926 465.824C514.926 469.664 517.806 471.68 522.318 471.68C530.862 471.68 537.198 465.056 537.198 458.816V450.656L522.222 457.76C517.23 460.064 514.926 462.368 514.926 465.824ZM565.712 421.664H559.376V411.68H565.712V421.664ZM565.712 476H559.376V429.92H565.712V476ZM585.494 476H579.158V429.92H585.494V442.784C587.126 435.296 592.406 428.96 601.622 428.96C610.742 428.96 616.886 434.336 616.886 444.896V476H610.55V446.336C610.55 438.848 607.094 434.24 599.126 434.24C589.43 434.24 585.494 441.344 585.494 449.312V476ZM636.306 421.664H629.97V411.68H636.306V421.664ZM636.306 476H629.97V429.92H636.306V476ZM656.087 476H649.751V429.92H656.087V442.784C657.719 435.296 662.999 428.96 672.215 428.96C681.335 428.96 687.479 434.336 687.479 444.896V476H681.143V446.336C681.143 438.848 677.687 434.24 669.719 434.24C660.023 434.24 656.087 441.344 656.087 449.312V476ZM717.951 461.792C714.399 461.792 711.231 461.024 708.543 459.68C707.103 461.408 705.663 463.808 705.663 466.016C705.663 468.608 707.199 470.144 712.191 470.144H726.495C734.559 470.144 739.551 473.408 739.551 480.128C739.551 488.672 730.719 494.816 715.935 494.816C704.223 494.816 696.927 490.88 696.927 484.544C696.927 479.744 701.535 476.768 705.183 475.328C702.015 474.464 700.479 472.256 700.479 469.472C700.479 465.728 703.359 461.888 707.199 458.912C702.783 456.032 700.095 451.232 700.095 445.376C700.095 435.776 707.295 428.96 717.951 428.96C721.311 428.96 724.287 429.632 726.879 430.784L730.623 419.648L737.247 422.144L728.991 432.032C733.311 435.008 735.807 439.712 735.807 445.376C735.807 454.976 728.703 461.792 717.951 461.792ZM717.951 456.896C724.863 456.896 729.759 452.384 729.759 445.376C729.759 438.368 724.863 433.856 717.951 433.856C711.135 433.856 706.239 438.368 706.239 445.376C706.239 452.384 711.135 456.896 717.951 456.896ZM715.935 489.824C727.071 489.824 733.695 486.176 733.695 480.896C733.695 477.248 731.103 475.616 725.631 475.616H706.911C704.607 477.056 702.111 479.744 702.111 482.72C702.111 487.232 707.199 489.824 715.935 489.824Z" fill="white"/>
<path d="M852.229 331H834.949V283.576H852.229V297.592C853.477 289.72 857.317 282.616 867.781 282.616C876.037 282.616 881.029 288.088 881.029 297.592C882.277 289.72 886.117 282.616 896.581 282.616C904.837 282.616 909.829 288.088 909.829 297.784V331H892.549V304.504C892.549 298.744 891.493 295.672 886.789 295.672C882.277 295.672 881.029 297.496 881.029 305.176V331H863.749V304.504C863.749 298.744 862.693 295.672 857.989 295.672C853.477 295.672 852.229 297.496 852.229 305.176V331ZM927.726 332.056C920.814 332.056 915.342 328.6 915.342 320.056C915.342 312.376 919.662 308.152 930.222 304.888L942.99 300.952C942.51 298.264 941.07 297.112 937.23 297.112C931.758 297.112 925.614 300.088 921.678 304.504L913.998 291.832C919.95 286.456 928.302 282.616 938.19 282.616C950.382 282.616 957.87 288.568 957.87 300.76V315.064C957.87 317.176 958.446 317.848 960.174 317.848H962.958V331H953.166C947.79 331 942.51 328.696 942.51 321.976V318.328C941.07 324.472 937.422 332.056 927.726 332.056ZM930.702 317.656C930.702 319.192 931.854 320.056 934.35 320.056C940.014 320.056 942.51 317.848 942.51 312.952V311.512L934.734 314.296C931.47 315.448 930.702 316.408 930.702 317.656ZM982.977 331.96C971.649 331.96 964.641 323.512 964.641 307.288C964.641 291.064 971.649 282.616 982.017 282.616C992.193 282.616 995.745 289.72 996.993 297.592V266.68H1014.27V331H996.993V317.176C995.841 324.952 993.153 331.96 982.977 331.96ZM982.209 307.288C982.209 314.296 984.705 318.904 990.273 318.904C993.921 318.904 996.993 317.08 996.993 309.4V305.176C996.993 297.496 993.729 295.672 989.889 295.672C984.609 295.672 982.209 300.28 982.209 307.288ZM1045.4 331.96C1029.08 331.96 1020.06 321.688 1020.06 307.288C1020.06 292.888 1029.28 282.616 1043.77 282.616C1060 282.616 1067 293.464 1067 304.888C1067 307.192 1066.81 310.744 1066.52 311.896H1036.09C1037.15 316.504 1040.89 318.136 1045.69 318.136C1050.4 318.136 1053.85 316.792 1055.68 312.664L1066.14 322.648C1062.49 327.352 1056.25 331.96 1045.4 331.96ZM1043.87 295.48C1039.16 295.48 1036.19 297.976 1035.8 302.968H1051.55C1051.26 298.168 1049.05 295.48 1043.87 295.48ZM1113.19 331.96C1096.87 331.96 1087.84 321.688 1087.84 307.288C1087.84 292.888 1097.06 282.616 1111.55 282.616C1127.78 282.616 1134.79 293.464 1134.79 304.888C1134.79 307.192 1134.59 310.744 1134.31 311.896H1103.87C1104.93 316.504 1108.67 318.136 1113.47 318.136C1118.18 318.136 1121.63 316.792 1123.46 312.664L1133.92 322.648C1130.27 327.352 1124.03 331.96 1113.19 331.96ZM1111.65 295.48C1106.95 295.48 1103.97 297.976 1103.59 302.968H1119.33C1119.04 298.168 1116.83 295.48 1111.65 295.48ZM1151.32 332.056C1144.41 332.056 1138.94 328.6 1138.94 320.056C1138.94 312.376 1143.26 308.152 1153.82 304.888L1166.58 300.952C1166.1 298.264 1164.66 297.112 1160.82 297.112C1155.35 297.112 1149.21 300.088 1145.27 304.504L1137.59 291.832C1143.54 286.456 1151.9 282.616 1161.78 282.616C1173.98 282.616 1181.46 288.568 1181.46 300.76V315.064C1181.46 317.176 1182.04 317.848 1183.77 317.848H1186.55V331H1176.76C1171.38 331 1166.1 328.696 1166.1 321.976V318.328C1164.66 324.472 1161.02 332.056 1151.32 332.056ZM1154.3 317.656C1154.3 319.192 1155.45 320.056 1157.94 320.056C1163.61 320.056 1166.1 317.848 1166.1 312.952V311.512L1158.33 314.296C1155.06 315.448 1154.3 316.408 1154.3 317.656ZM1212.08 331.96C1201.13 331.96 1191.53 328.408 1186.83 324.76L1193.26 312.28C1198.73 316.024 1206.89 319.288 1212.56 319.288C1215.15 319.288 1216.4 318.712 1216.4 317.368C1216.4 315.928 1214.77 315.256 1209.97 314.008L1203.44 312.28C1193.74 309.688 1188.37 306.136 1188.37 298.168C1188.37 288.376 1196.53 282.712 1209.1 282.712C1219.57 282.712 1227.15 286.648 1230.89 289.432L1225.04 301.72C1218.89 297.208 1212.17 295.288 1207.47 295.288C1205.07 295.288 1203.92 296.056 1203.92 297.208C1203.92 298.648 1205.26 299.32 1211.41 301.144L1216.3 302.584C1226.57 305.56 1231.76 309.4 1231.76 317.08C1231.76 326.008 1224.27 331.96 1212.08 331.96ZM1251.18 349.816C1243.88 349.816 1236.87 347.128 1232.94 344.248L1238.89 329.176C1242.44 332.44 1246.57 334.648 1250.6 334.648C1254.06 334.648 1255.88 333.688 1257.32 330.04L1258.19 327.736H1247.91L1232.75 283.576H1252.14L1256.65 300.568L1260.3 320.248L1264.04 300.568L1268.65 283.576H1288.43L1271.91 333.304C1267.98 345.016 1261.74 349.816 1251.18 349.816Z" fill="white"/>
<path d="M864.312 612H843.192L831.48 564.576H850.296L852.408 584.832L853.944 601.536L856.824 584.928L860.76 564.576H879.768L884.088 584.928L886.776 601.536L888.312 584.832L890.424 564.576H909.24L897.528 612H876.408L873.048 595.104L870.36 575.136L867.672 595.104L864.312 612ZM930.87 560.256H913.59V547.68H930.87V560.256ZM930.87 612H913.59V564.576H930.87V612ZM959.168 612.96C946.88 612.96 942.368 605.952 942.368 596.736V577.632H935.648V564.576H942.368V559.2L959.648 551.52V564.576H971.168V577.632H959.648V594.24C959.648 596.736 960.896 597.984 963.104 597.984C965.216 597.984 967.712 596.448 969.248 594.048L973.952 607.008C971.936 609.312 966.848 612.96 959.168 612.96ZM996.026 612H978.746V547.68H996.026V578.688C997.37 570.816 1001.69 563.616 1011.58 563.616C1020.41 563.616 1025.79 569.088 1025.79 578.784V612H1008.51V585.504C1008.51 579.744 1007.45 576.672 1002.27 576.672C997.274 576.672 996.026 578.496 996.026 586.176V612ZM1072.95 612.96C1056.63 612.96 1047.61 602.688 1047.61 588.288C1047.61 573.888 1056.82 563.616 1071.32 563.616C1087.54 563.616 1094.55 574.464 1094.55 585.888C1094.55 588.192 1094.36 591.744 1094.07 592.896H1063.64C1064.7 597.504 1068.44 599.136 1073.24 599.136C1077.94 599.136 1081.4 597.792 1083.22 593.664L1093.69 603.648C1090.04 608.352 1083.8 612.96 1072.95 612.96ZM1071.42 576.48C1066.71 576.48 1063.74 578.976 1063.35 583.968H1079.1C1078.81 579.168 1076.6 576.48 1071.42 576.48ZM1111.09 613.056C1104.17 613.056 1098.7 609.6 1098.7 601.056C1098.7 593.376 1103.02 589.152 1113.58 585.888L1126.35 581.952C1125.87 579.264 1124.43 578.112 1120.59 578.112C1115.12 578.112 1108.97 581.088 1105.04 585.504L1097.36 572.832C1103.31 567.456 1111.66 563.616 1121.55 563.616C1133.74 563.616 1141.23 569.568 1141.23 581.76V596.064C1141.23 598.176 1141.81 598.848 1143.53 598.848H1146.32V612H1136.53C1131.15 612 1125.87 609.696 1125.87 602.976V599.328C1124.43 605.472 1120.78 613.056 1111.09 613.056ZM1114.06 598.656C1114.06 600.192 1115.21 601.056 1117.71 601.056C1123.37 601.056 1125.87 598.848 1125.87 593.952V592.512L1118.09 595.296C1114.83 596.448 1114.06 597.408 1114.06 598.656ZM1171.84 612.96C1160.9 612.96 1151.3 609.408 1146.6 605.76L1153.03 593.28C1158.5 597.024 1166.66 600.288 1172.32 600.288C1174.92 600.288 1176.16 599.712 1176.16 598.368C1176.16 596.928 1174.53 596.256 1169.73 595.008L1163.2 593.28C1153.51 590.688 1148.13 587.136 1148.13 579.168C1148.13 569.376 1156.29 563.712 1168.87 563.712C1179.33 563.712 1186.92 567.648 1190.66 570.432L1184.8 582.72C1178.66 578.208 1171.94 576.288 1167.24 576.288C1164.84 576.288 1163.68 577.056 1163.68 578.208C1163.68 579.648 1165.03 580.32 1171.17 582.144L1176.07 583.584C1186.34 586.56 1191.52 590.4 1191.52 598.08C1191.52 607.008 1184.04 612.96 1171.84 612.96ZM1210.94 630.816C1203.65 630.816 1196.64 628.128 1192.7 625.248L1198.66 610.176C1202.21 613.44 1206.34 615.648 1210.37 615.648C1213.82 615.648 1215.65 614.688 1217.09 611.04L1217.95 608.736H1207.68L1192.51 564.576H1211.9L1216.42 581.568L1220.06 601.248L1223.81 581.568L1228.42 564.576H1248.19L1231.68 614.304C1227.74 626.016 1221.5 630.816 1210.94 630.816ZM852.12 700H834.84V652.576H852.12V668.608C853.56 660.448 858.072 651.616 867.768 651.616C876.024 651.616 879.096 656.8 879.096 664.672C879.096 670.432 877.176 675.328 875.832 677.728H859.992C861.72 675.712 863.64 672.064 863.64 669.184C863.64 666.496 862.488 664.672 859.704 664.672C855.768 664.672 852.12 668.416 852.12 676.096V700ZM906.639 700.96C890.319 700.96 881.295 690.688 881.295 676.288C881.295 661.888 890.511 651.616 905.007 651.616C921.231 651.616 928.239 662.464 928.239 673.888C928.239 676.192 928.047 679.744 927.759 680.896H897.327C898.383 685.504 902.127 687.136 906.927 687.136C911.631 687.136 915.087 685.792 916.911 681.664L927.375 691.648C923.727 696.352 917.487 700.96 906.639 700.96ZM905.103 664.48C900.399 664.48 897.423 666.976 897.039 671.968H912.783C912.495 667.168 910.287 664.48 905.103 664.48ZM956.219 700.96C945.275 700.96 935.675 697.408 930.971 693.76L937.403 681.28C942.875 685.024 951.035 688.288 956.699 688.288C959.291 688.288 960.539 687.712 960.539 686.368C960.539 684.928 958.907 684.256 954.107 683.008L947.579 681.28C937.883 678.688 932.507 675.136 932.507 667.168C932.507 657.376 940.667 651.712 953.243 651.712C963.707 651.712 971.291 655.648 975.035 658.432L969.179 670.72C963.035 666.208 956.315 664.288 951.611 664.288C949.211 664.288 948.059 665.056 948.059 666.208C948.059 667.648 949.403 668.32 955.547 670.144L960.443 671.584C970.715 674.56 975.899 678.4 975.899 686.08C975.899 695.008 968.411 700.96 956.219 700.96ZM1003.19 700.96C988.018 700.96 978.514 690.4 978.514 676.288C978.514 662.176 988.018 651.616 1003.19 651.616C1019.12 651.616 1028.63 662.176 1028.63 676.288C1028.63 690.4 1019.12 700.96 1003.19 700.96ZM1003.57 687.136C1007.99 687.136 1011.06 684.544 1011.06 676.288C1011.06 668.032 1007.99 665.44 1003.57 665.44C999.154 665.44 996.082 668.032 996.082 676.288C996.082 684.544 999.154 687.136 1003.57 687.136ZM1048.07 700.96C1039.24 700.96 1033.86 695.488 1033.86 685.792V652.576H1051.14V679.072C1051.14 684.832 1052.2 687.904 1057.38 687.904C1062.38 687.904 1063.62 686.08 1063.62 678.4V652.576H1080.9V700H1063.62V685.888C1062.28 693.76 1057.96 700.96 1048.07 700.96ZM1105.9 700H1088.62V652.576H1105.9V668.608C1107.34 660.448 1111.85 651.616 1121.55 651.616C1129.81 651.616 1132.88 656.8 1132.88 664.672C1132.88 670.432 1130.96 675.328 1129.61 677.728H1113.77C1115.5 675.712 1117.42 672.064 1117.42 669.184C1117.42 666.496 1116.27 664.672 1113.49 664.672C1109.55 664.672 1105.9 668.416 1105.9 676.096V700ZM1159.75 700.96C1144.58 700.96 1135.08 690.4 1135.08 676.288C1135.08 662.176 1144.58 651.616 1159.75 651.616C1170.31 651.616 1178.56 657.088 1181.92 664.384L1168.48 673.216C1167.14 668.32 1164.55 665.92 1160.52 665.92C1156 665.92 1152.64 669.088 1152.64 676.288C1152.64 683.488 1156 686.656 1160.52 686.656C1164.64 686.656 1167.14 684.256 1168.48 679.36L1181.92 688.192C1178.56 695.488 1170.31 700.96 1159.75 700.96ZM1208.14 700.96C1191.82 700.96 1182.8 690.688 1182.8 676.288C1182.8 661.888 1192.01 651.616 1206.51 651.616C1222.73 651.616 1229.74 662.464 1229.74 673.888C1229.74 676.192 1229.55 679.744 1229.26 680.896H1198.83C1199.88 685.504 1203.63 687.136 1208.43 687.136C1213.13 687.136 1216.59 685.792 1218.41 681.664L1228.88 691.648C1225.23 696.352 1218.99 700.96 1208.14 700.96ZM1206.6 664.48C1201.9 664.48 1198.92 666.976 1198.54 671.968H1214.28C1214 667.168 1211.79 664.48 1206.6 664.48ZM857.688 788.96C846.744 788.96 837.144 785.408 832.44 781.76L838.872 769.28C844.344 773.024 852.504 776.288 858.168 776.288C860.76 776.288 862.008 775.712 862.008 774.368C862.008 772.928 860.376 772.256 855.576 771.008L849.048 769.28C839.352 766.688 833.976 763.136 833.976 755.168C833.976 745.376 842.136 739.712 854.712 739.712C865.176 739.712 872.76 743.648 876.504 746.432L870.648 758.72C864.504 754.208 857.784 752.288 853.08 752.288C850.68 752.288 849.528 753.056 849.528 754.208C849.528 755.648 850.872 756.32 857.016 758.144L861.912 759.584C872.184 762.56 877.368 766.4 877.368 774.08C877.368 783.008 869.88 788.96 857.688 788.96ZM899.933 788H882.653V723.68H899.933V754.688C901.277 746.816 905.597 739.616 915.485 739.616C924.317 739.616 929.693 745.088 929.693 754.784V788H912.413V761.504C912.413 755.744 911.357 752.672 906.173 752.672C901.181 752.672 899.933 754.496 899.933 762.176V788ZM947.585 789.056C940.673 789.056 935.201 785.6 935.201 777.056C935.201 769.376 939.521 765.152 950.081 761.888L962.849 757.952C962.369 755.264 960.929 754.112 957.089 754.112C951.617 754.112 945.473 757.088 941.537 761.504L933.857 748.832C939.809 743.456 948.161 739.616 958.049 739.616C970.241 739.616 977.729 745.568 977.729 757.76V772.064C977.729 774.176 978.305 774.848 980.033 774.848H982.817V788H973.025C967.649 788 962.369 785.696 962.369 778.976V775.328C960.929 781.472 957.281 789.056 947.585 789.056ZM950.561 774.656C950.561 776.192 951.713 777.056 954.209 777.056C959.873 777.056 962.369 774.848 962.369 769.952V768.512L954.593 771.296C951.329 772.448 950.561 773.408 950.561 774.656ZM1004.46 788H987.184V740.576H1004.46V756.608C1005.9 748.448 1010.42 739.616 1020.11 739.616C1028.37 739.616 1031.44 744.8 1031.44 752.672C1031.44 758.432 1029.52 763.328 1028.18 765.728H1012.34C1014.06 763.712 1015.98 760.064 1015.98 757.184C1015.98 754.496 1014.83 752.672 1012.05 752.672C1008.11 752.672 1004.46 756.416 1004.46 764.096V788ZM1053.03 736.256H1035.75V723.68H1053.03V736.256ZM1053.03 788H1035.75V740.576H1053.03V788ZM1077.96 788H1060.68V740.576H1077.96V754.688C1079.31 746.816 1083.63 739.616 1093.52 739.616C1102.35 739.616 1107.72 745.088 1107.72 754.784V788H1090.44V761.504C1090.44 755.744 1089.39 752.672 1084.2 752.672C1079.21 752.672 1077.96 754.496 1077.96 762.176V788ZM1136.68 774.752C1132.07 774.752 1128.04 773.888 1124.68 772.352C1124.3 773.12 1124.01 773.984 1124.01 774.944C1124.01 776.96 1125.06 778.208 1128.23 778.208H1146.47C1158.28 778.208 1162.6 783.104 1162.6 789.92C1162.6 798.848 1154.06 806.816 1133.32 806.816C1116.9 806.816 1109.41 802.304 1109.41 797.024C1109.41 792.32 1114.7 790.112 1121.9 790.016C1117.1 789.248 1113.06 787.232 1113.06 782.336C1113.06 777.056 1117.96 773.024 1122.47 771.104C1117.48 768.032 1114.6 763.136 1114.6 757.184C1114.6 746.72 1123.43 739.616 1136.68 739.616C1139.37 739.616 1141.77 739.904 1144.07 740.48L1145.8 728.96L1160.2 733.76L1150.89 743.168C1155.88 746.24 1158.76 751.136 1158.76 757.184C1158.76 767.648 1149.93 774.752 1136.68 774.752ZM1136.68 763.808C1140.14 763.808 1142.82 761.792 1142.82 757.184C1142.82 752.576 1140.14 750.56 1136.68 750.56C1133.22 750.56 1130.54 752.576 1130.54 757.184C1130.54 761.792 1133.22 763.808 1136.68 763.808ZM1135.24 795.2C1144.07 795.2 1148.1 794.048 1148.1 791.936C1148.1 790.4 1146.66 790.016 1143.78 790.016H1123.34C1123.24 790.304 1123.14 790.688 1123.14 791.168C1123.14 793.76 1126.12 795.2 1135.24 795.2Z" fill="#FFB9EC"/>
</g>
<defs>
<filter id="filter0_d_132_12" x="685.5" y="90.5" width="888" height="888" filterUnits="userSpaceOnUse" color-interpolation-filters="sRGB">
<feFlood flood-opacity="0" result="BackgroundImageFix"/>
<feColorMatrix in="SourceAlpha" type="matrix" values="0 0 0 0 0 0 0 0 0 0 0 0 0 0 0 0 0 0 127 0" result="hardAlpha"/>
<feMorphology radius="23" operator="dilate" in="SourceAlpha" result="effect1_dropShadow_132_12"/>
<feOffset dx="5" dy="5"/>
<feGaussianBlur stdDeviation="43.75"/>
<feComposite in2="hardAlpha" operator="out"/>
<feColorMatrix type="matrix" values="0 0 0 0 0.633333 0 0 0 0 1 0 0 0 0 0.956 0 0 0 0.25 0"/>
<feBlend mode="normal" in2="BackgroundImageFix" result="effect1_dropShadow_132_12"/>
<feBlend mode="normal" in="SourceGraphic" in2="effect1_dropShadow_132_12" result="shape"/>
</filter>
<filter id="filter1_d_132_12" x="1482" y="92" width="886" height="886" filterUnits="userSpaceOnUse" color-interpolation-filters="sRGB">
<feFlood flood-opacity="0" result="BackgroundImageFix"/>
<feColorMatrix in="SourceAlpha" type="matrix" values="0 0 0 0 0 0 0 0 0 0 0 0 0 0 0 0 0 0 127 0" result="hardAlpha"/>
<feMorphology radius="14" operator="dilate" in="SourceAlpha" result="effect1_dropShadow_132_12"/>
<feOffset dx="5" dy="4"/>
<feGaussianBlur stdDeviation="48.5"/>
<feComposite in2="hardAlpha" operator="out"/>
<feColorMatrix type="matrix" values="0 0 0 0 1 0 0 0 0 0.788235 0 0 0 0 0.87451 0 0 0 0.25 0"/>
<feBlend mode="normal" in2="BackgroundImageFix" result="effect1_dropShadow_132_12"/>
<feBlend mode="normal" in="SourceGraphic" in2="effect1_dropShadow_132_12" result="shape"/>
</filter>
<clipPath id="clip0_132_12">
<rect width="1920" height="1080" fill="white"/>
</clipPath>
</defs>
</svg>
